<svg xmlns="http://www.w3.org/2000/svg" width="1200" height="630" viewBox="0 0 1200 630">
  <defs>
    <linearGradient id="bg" x1="0%" y1="0%" x2="100%" y2="100%">
      <stop offset="0%" stop-color="#0e1836"/>
      <stop offset="100%" stop-color="#1c3189"/>
    </linearGradient>
    <radialGradient id="glow" cx="50%" cy="50%" r="50%">
      <stop offset="0%" stop-color="#06b6d4" stop-opacity="0.35"/>
      <stop offset="100%" stop-color="#06b6d4" stop-opacity="0"/>
    </radialGradient>
    <pattern id="grid" width="34" height="34" patternUnits="userSpaceOnUse">
      <path d="M 34 0 L 0 0 0 34" fill="none" stroke="#ffffff" stroke-opacity="0.05" stroke-width="1"/>
    </pattern>
  </defs>
  <rect width="1200" height="630" fill="url(#bg)"/>
  <rect width="1200" height="630" fill="url(#grid)"/>
  <circle cx="980" cy="140" r="360" fill="url(#glow)"/>
  
  <g transform="translate(515.0 235.0) scale(8.7500)" opacity="0.92"><path d="M10.5 1.5H8.25A2.25 2.25 0 0 0 6 3.75v16.5a2.25 2.25 0 0 0 2.25 2.25h7.5A2.25 2.25 0 0 0 18 20.25V3.75a2.25 2.25 0 0 0-2.25-2.25H13.5m-3 0V3h3V1.5m-3 0h3m-3 18.75h3" fill="none" stroke="#22d3ee" stroke-width="0.13" stroke-linecap="round" stroke-linejoin="round"/></g>
  <rect x="60" y="60" width="185" height="40" rx="20" fill="#06b6d4" fill-opacity="0.16"/>
  <text x="80" y="86" font-family="Arial, sans-serif" font-weight="700" font-size="15" letter-spacing="0.5" fill="#67e8f9">LANÇAMENTO</text>
  <text x="60" y="580" font-family="Arial, sans-serif" font-weight="800" font-size="20" letter-spacing="2" fill="#8fb0fc">DATABIT</text>
</svg>